HIERARCHY
ROOT Hips
{
	OFFSET 0.00000 0.00000 0.00000
	CHANNELS 6 Xposition Yposition Zposition Zrotation Yrotation Xrotation 
	JOINT LHipJoint
	{
		OFFSET 0 0 0
		CHANNELS 3 Zrotation Yrotation Xrotation
		JOINT LeftHip
		{
			OFFSET 1.53139 -1.83434 0.76626
			CHANNELS 3 Zrotation Yrotation Xrotation
			JOINT LeftKnee
			{
				OFFSET 2.56112 -7.03663 0.00000
				CHANNELS 3 Zrotation Yrotation Xrotation
				JOINT LeftAnkle
				{
					OFFSET 2.59983 -7.14299 0.00000
					CHANNELS 3 Zrotation Yrotation Xrotation
					JOINT LeftToe
					{
						OFFSET 0.13742 -0.37757 2.00054
						CHANNELS 3 Zrotation Yrotation Xrotation
						End Site
						{
							OFFSET 0.00000 -0.00000 1.02897
						}
					}
				}
			}
		}
	}
	JOINT RHipJoint
	{
		OFFSET 0 0 0
		CHANNELS 3 Zrotation Yrotation Xrotation
		JOINT RightHip
		{
			OFFSET -1.40122 -1.83435 0.76627
			CHANNELS 3 Zrotation Yrotation Xrotation
			JOINT RightKnee
			{
				OFFSET -2.54052 -6.98003 0.00000
				CHANNELS 3 Zrotation Yrotation Xrotation
				JOINT RightAnkle
				{
					OFFSET -2.63179 -7.23079 0.00000
					CHANNELS 3 Zrotation Yrotation Xrotation
					JOINT RightToe
					{
						OFFSET -0.24131 -0.66299 2.03908
						CHANNELS 3 Zrotation Yrotation Xrotation
						End Site
						{
							OFFSET -0.00000 -0.00000 1.07391
						}
					}
				}
			}
		}
	}
	JOINT lowerback
	{
		OFFSET 0 0 0
		CHANNELS 3 Zrotation Yrotation Xrotation
		JOINT Chest
		{
			OFFSET 0.01174 2.10302 -0.29778
			CHANNELS 3 Zrotation Yrotation Xrotation
			JOINT Chest2
			{
				OFFSET 0.00772 2.13227 -0.01247
				CHANNELS 3 Zrotation Yrotation Xrotation
				JOINT lowerneck
				{
					OFFSET 0 0 0
					CHANNELS 3 Zrotation Yrotation Xrotation
					JOINT Neck
					{
						OFFSET -0.09219 1.60848 0.31481
						CHANNELS 3 Zrotation Yrotation Xrotation
						JOINT Head
						{
							OFFSET 0.13974 1.65456 -0.31134
							CHANNELS 3 Zrotation Yrotation Xrotation
							End Site
							{
								OFFSET 0.04742 1.69515 -0.14578
							}
						}
					}
				}
				JOINT LeftCollar
				{
					OFFSET 0 0 0
					CHANNELS 3 Zrotation Yrotation Xrotation
					JOINT LeftShoulder
					{
						OFFSET 3.24909 1.02882 -0.23993
CHANNELS 3 Zrotation Xrotation Yrotation
						JOINT LeftElbow
						{
OFFSET 0 -5.329550 -0.000000
CHANNELS 3 Zrotation Xrotation Yrotation
							JOINT LeftWrist
							{
OFFSET 0 -3.692320 -0.000000
CHANNELS 3 Zrotation Xrotation Yrotation
								JOINT lhand
								{
									OFFSET 0 0 0
CHANNELS 3 Zrotation Xrotation Yrotation
									JOINT LFingers
									{
OFFSET 0 -0.536600 -0.000000
CHANNELS 3 Zrotation Xrotation Yrotation
										End Site
										{
OFFSET 0 -0.432620 -0.000000
										}
									}
								}
								JOINT LThumb
								{
OFFSET 0 0.000000 0.000000
CHANNELS 3 Zrotation Xrotation Yrotation
									End Site
									{
OFFSET 0 -0.439220 0.439220
									}
								}
							}
						}
					}
				}
				JOINT RightCollar
				{
					OFFSET 0 0 0
					CHANNELS 3 Zrotation Yrotation Xrotation
					JOINT RightShoulder
					{
						OFFSET -3.21387 0.93002 -0.34594
CHANNELS 3 Zrotation Xrotation Yrotation
						JOINT RightElbow
						{
OFFSET 0 -5.234310 0.000000
CHANNELS 3 Zrotation Xrotation Yrotation
							JOINT RightWrist
							{
OFFSET 0 -3.553010 -0.000000
CHANNELS 3 Zrotation Xrotation Yrotation
								JOINT rhand
								{
									OFFSET 0 0 0
CHANNELS 3 Zrotation Xrotation Yrotation
									JOINT RFingers
									{
OFFSET 0 -0.772520 -0.000000
CHANNELS 3 Zrotation Xrotation Yrotation
										End Site
										{
OFFSET 0 -0.622830 -0.000000
										}
									}
								}
								JOINT RThumb
								{
OFFSET 0 0.000000 0.000000
CHANNELS 3 Zrotation Xrotation Yrotation
									End Site
									{
OFFSET 0 -0.632340 0.632340
									}
								}
							}
						}
					}
				}
			}
		}
	}
}
MOTION
Frames: 6
Frame Time: 0.008333333333333333
-0.118500 18.156800 1.732200 1.130300 2.394100 0.756200 0.000000 0.000000 0.000000 -27.834300 -29.490900 15.206900 0.106300 2.102200 5.788100 -2.546000 26.873600 -10.857700 0.111600 -2.154200 -5.932100 0.000000 0.000000 0.000000 22.017800 2.277800 -3.679700 -1.356900 -7.373600 20.827100 -0.519200 -3.227500 -15.172500 -0.000600 -0.154900 0.425500 -2.387700 0.201700 5.199800 -0.147900 0.103800 -1.071600 1.178500 0.106500 -4.028900 -13.800900 -7.380300 -20.262400 12.395900 -9.891500 27.571400 5.514600 -4.172200 14.210500 -0.000000 0.000000 0.000000 1.271200 5.272400 -20.624800 16.070100 -25.615600 3.676200 19.975200 16.062600 -24.948800 0.000000 0.000000 0.000000 -7.125000 0.000000 0.000000 -10.429700 56.010500 2.839000 -0.000000 0.000000 0.000000 0.961400 4.067300 15.376500 -15.421300 -24.729700 -3.400200 -15.097800 5.829400 -8.337100 0.000000 0.000000 0.000000 7.125000 0.000000 -0.000000 8.503200 21.386400 4.869800
-0.119673 18.158313 1.729507 0.955653 2.365241 0.743927 0.000000 0.000000 0.000000 -27.546019 -29.530779 15.009546 0.115887 2.194447 6.043426 -2.549538 26.890278 -10.868004 0.134764 -2.365937 -6.518150 0.000000 0.000000 0.000000 22.235068 2.370532 -3.618676 -1.342907 -7.336988 20.717564 -0.507594 -3.334651 -15.089965 -0.000167 -0.071355 0.195993 -2.225221 0.227178 5.182317 -0.107778 0.151455 -1.018478 1.124844 0.125691 -3.965087 -13.781311 -7.384148 -20.301421 12.421533 -9.898739 27.497519 5.516492 -4.168208 14.188658 0.000000 0.000000 0.000000 1.262287 5.098412 -20.574956 15.985209 -25.500632 3.639624 19.870038 16.088318 -25.190815 0.000000 0.000000 0.000000 -7.125000 0.000000 0.000000 -10.652799 56.233451 2.958517 0.000000 0.000000 0.000000 0.991742 4.008524 15.306869 -15.427465 -24.738205 -3.402813 -15.090929 5.760096 -8.599159 0.000000 0.000000 0.000000 7.125000 0.000000 0.000000 8.500072 21.118874 4.919970
-0.117747 18.157260 1.729407 0.999552 2.381327 0.711342 0.000000 0.000000 0.000000 -27.590653 -29.555403 14.982721 0.119726 2.230901 6.144231 -2.552301 26.903516 -10.851507 0.135468 -2.372069 -6.535043 0.000000 0.000000 0.000000 22.168758 2.313431 -3.577896 -1.338034 -7.324142 20.679401 -0.508945 -3.278137 -15.073291 -0.000893 -0.189040 0.519412 -2.277310 0.221245 5.261452 -0.108263 0.137806 -1.031531 1.154544 0.120766 -4.023059 -13.804893 -7.377921 -20.343459 12.423764 -9.880998 27.543673 5.527091 -4.161477 14.216446 0.000000 0.000000 0.000000 1.200622 5.138780 -20.429289 15.949395 -25.451958 3.624237 20.280178 16.085033 -24.330882 0.000000 0.000000 0.000000 -7.125000 0.000000 0.000000 -9.834557 55.445846 2.540205 0.000000 0.000000 0.000000 0.968345 4.041025 15.364874 -15.434496 -24.747852 -3.405770 -15.004118 5.735980 -8.457299 0.000000 0.000000 0.000000 7.125000 0.000000 0.000000 8.566780 21.267894 4.930279
-0.117260 18.158139 1.727701 0.974396 2.367835 0.704428 0.000000 0.000000 0.000000 -27.563063 -29.538552 14.986549 0.120599 2.238331 6.164874 -2.539666 26.845428 -11.041399 0.117468 -2.208931 -6.083477 0.000000 0.000000 0.000000 22.205271 2.322154 -3.573810 -1.337381 -7.322482 20.674326 -0.508083 -3.319466 -15.087523 -0.000160 -0.032461 0.089178 -2.268086 0.240216 5.279358 -0.098408 0.163894 -1.010412 1.157276 0.133377 -4.012251 -13.760155 -7.412832 -20.450698 12.351294 -9.914732 27.587583 5.482338 -4.176458 14.256634 0.000000 0.000000 0.000000 1.194181 5.104257 -20.410948 15.937960 -25.436400 3.619280 20.237314 15.992816 -24.115035 0.000000 0.000000 0.000000 -7.125000 0.000000 0.000000 -9.784490 55.217855 2.472001 0.000000 0.000000 0.000000 0.967254 3.984066 15.332418 -15.408702 -24.712343 -3.394981 -15.050761 5.705379 -8.507124 0.000000 0.000000 0.000000 7.125000 0.000000 0.000000 8.531724 21.214840 4.919954
-0.117681 18.157660 1.727093 0.941669 2.362545 0.693018 0.000000 0.000000 0.000000 -27.501538 -29.549956 14.937427 0.123279 2.263522 6.234454 -2.538788 26.841212 -11.030755 0.121745 -2.249214 -6.194912 0.000000 0.000000 0.000000 22.258059 2.372835 -3.532220 -1.333789 -7.313079 20.646291 -0.500816 -3.411767 -15.051563 -0.000047 -0.017810 0.048854 -2.276174 0.249315 5.239639 -0.075376 0.178089 -0.964797 1.184511 0.139739 -3.943148 -13.783696 -7.416462 -20.445137 12.400995 -9.920629 27.514652 5.502788 -4.175180 14.229810 0.000000 0.000000 0.000000 1.161957 5.031341 -20.314159 15.936984 -25.435177 3.618894 20.207918 16.036738 -24.094409 0.000000 0.000000 0.000000 -7.125000 0.000000 0.000000 -9.806096 55.191025 2.471212 0.000000 0.000000 0.000000 0.950273 3.955686 15.464840 -15.419218 -24.726895 -3.399363 -15.205917 5.774050 -8.336270 0.000000 0.000000 0.000000 7.125000 0.000000 0.000000 8.425284 21.382331 4.824907
-0.114901 18.156966 1.727167 0.884726 2.327990 0.674843 0.000000 0.000000 0.000000 -27.446973 -29.510305 14.937694 0.122968 2.260279 6.225602 -2.539032 26.841292 -10.963963 0.119192 -2.225292 -6.128828 0.000000 0.000000 0.000000 22.300375 2.388973 -3.510885 -1.330833 -7.305300 20.622932 -0.498533 -3.368287 -14.995319 -0.000266 -0.090588 0.248927 -2.181129 0.277761 5.247957 -0.091188 0.221554 -0.959236 1.111082 0.158963 -3.943084 -13.775947 -7.443209 -20.439710 12.424395 -9.972344 27.516044 5.501020 -4.193890 14.239625 0.000000 0.000000 0.000000 1.210216 5.005409 -20.299401 15.913486 -25.403160 3.608775 20.531043 16.378034 -24.502567 0.000000 0.000000 0.000000 -7.125000 0.000000 0.000000 -9.647960 55.671553 2.543512 0.000000 0.000000 0.000000 0.981812 3.991228 15.548739 -15.457670 -24.779826 -3.415454 -15.051702 5.701634 -8.434993 0.000000 0.000000 0.000000 7.125000 0.000000 0.000000 8.533345 21.288474 4.906533
